<svg id="visual" viewBox="0 0 900 600" width="900" height="600" xmlns="http://www.w3.org/2000/svg" xmlns:xlink="http://www.w3.org/1999/xlink" version="1.1"><rect x="0" y="0" width="900" height="600" fill="#fafafa"></rect><path d="M0 368L21.5 371.2C43 374.3 86 380.7 128.8 393.3C171.7 406 214.3 425 257.2 428C300 431 343 418 385.8 403.2C428.7 388.3 471.3 371.7 514.2 371C557 370.3 600 385.7 642.8 396C685.7 406.3 728.3 411.7 771.2 407.2C814 402.7 857 388.3 878.5 381.2L900 374L900 601L878.5 601C857 601 814 601 771.2 601C728.3 601 685.7 601 642.8 601C600 601 557 601 514.2 601C471.3 601 428.7 601 385.8 601C343 601 300 601 257.2 601C214.3 601 171.7 601 128.8 601C86 601 43 601 21.5 601L0 601Z" fill="#69faca"></path><path d="M0 439L21.5 439.8C43 440.7 86 442.3 128.8 438.2C171.7 434 214.3 424 257.2 416C300 408 343 402 385.8 404.8C428.7 407.7 471.3 419.3 514.2 421.8C557 424.3 600 417.7 642.8 415.3C685.7 413 728.3 415 771.2 423.3C814 431.7 857 446.3 878.5 453.7L900 461L900 601L878.5 601C857 601 814 601 771.2 601C728.3 601 685.7 601 642.8 601C600 601 557 601 514.2 601C471.3 601 428.7 601 385.8 601C343 601 300 601 257.2 601C214.3 601 171.7 601 128.8 601C86 601 43 601 21.5 601L0 601Z" fill="#00c3c7"></path><path d="M0 441L21.5 443.8C43 446.7 86 452.3 128.8 455.7C171.7 459 214.3 460 257.2 462.7C300 465.3 343 469.7 385.8 474.5C428.7 479.3 471.3 484.7 514.2 479.5C557 474.3 600 458.7 642.8 453.2C685.7 447.7 728.3 452.3 771.2 451.8C814 451.3 857 445.7 878.5 442.8L900 440L900 601L878.5 601C857 601 814 601 771.2 601C728.3 601 685.7 601 642.8 601C600 601 557 601 514.2 601C471.3 601 428.7 601 385.8 601C343 601 300 601 257.2 601C214.3 601 171.7 601 128.8 601C86 601 43 601 21.5 601L0 601Z" fill="#008aaa"></path><path d="M0 527L21.5 527.2C43 527.3 86 527.7 128.8 521.2C171.7 514.7 214.3 501.3 257.2 493.8C300 486.3 343 484.7 385.8 490C428.7 495.3 471.3 507.7 514.2 510.2C557 512.7 600 505.3 642.8 502.8C685.7 500.3 728.3 502.7 771.2 504.2C814 505.7 857 506.3 878.5 506.7L900 507L900 601L878.5 601C857 601 814 601 771.2 601C728.3 601 685.7 601 642.8 601C600 601 557 601 514.2 601C471.3 601 428.7 601 385.8 601C343 601 300 601 257.2 601C214.3 601 171.7 601 128.8 601C86 601 43 601 21.5 601L0 601Z" fill="#00547d"></path><path d="M0 529L21.5 531.5C43 534 86 539 128.8 540.8C171.7 542.7 214.3 541.3 257.2 538C300 534.7 343 529.3 385.8 529.3C428.7 529.3 471.3 534.7 514.2 535C557 535.3 600 530.7 642.8 530.5C685.7 530.3 728.3 534.7 771.2 538C814 541.3 857 543.7 878.5 544.8L900 546L900 601L878.5 601C857 601 814 601 771.2 601C728.3 601 685.7 601 642.8 601C600 601 557 601 514.2 601C471.3 601 428.7 601 385.8 601C343 601 300 601 257.2 601C214.3 601 171.7 601 128.8 601C86 601 43 601 21.5 601L0 601Z" fill="#02234a"></path></svg>