<svg id="visual" viewBox="0 0 900 600" width="900" height="600" xmlns="http://www.w3.org/2000/svg" xmlns:xlink="http://www.w3.org/1999/xlink" version="1.1"><path d="M0 175L13.7 188C27.3 201 54.7 227 82 217C109.3 207 136.7 161 163.8 156C191 151 218 187 245.2 183C272.3 179 299.7 135 327 132C354.3 129 381.7 167 409 191C436.3 215 463.7 225 491 206C518.3 187 545.7 139 573 128C600.3 117 627.7 143 654.8 152C682 161 709 153 736.2 146C763.3 139 790.7 133 818 125C845.3 117 872.7 107 886.3 102L900 97L900 0L886.3 0C872.7 0 845.3 0 818 0C790.7 0 763.3 0 736.2 0C709 0 682 0 654.8 0C627.7 0 600.3 0 573 0C545.7 0 518.3 0 491 0C463.7 0 436.3 0 409 0C381.7 0 354.3 0 327 0C299.7 0 272.3 0 245.2 0C218 0 191 0 163.8 0C136.7 0 109.3 0 82 0C54.7 0 27.3 0 13.7 0L0 0Z" fill="#6198ff"></path><path d="M0 277L13.7 282C27.3 287 54.7 297 82 282C109.3 267 136.7 227 163.8 224C191 221 218 255 245.2 259C272.3 263 299.7 237 327 242C354.3 247 381.7 283 409 311C436.3 339 463.7 359 491 333C518.3 307 545.7 235 573 224C600.3 213 627.7 263 654.8 271C682 279 709 245 736.2 232C763.3 219 790.7 227 818 230C845.3 233 872.7 231 886.3 230L900 229L900 95L886.3 100C872.7 105 845.3 115 818 123C790.7 131 763.3 137 736.2 144C709 151 682 159 654.8 150C627.7 141 600.3 115 573 126C545.7 137 518.3 185 491 204C463.7 223 436.3 213 409 189C381.7 165 354.3 127 327 130C299.7 133 272.3 177 245.2 181C218 185 191 149 163.8 154C136.7 159 109.3 205 82 215C54.7 225 27.3 199 13.7 186L0 173Z" fill="#3c80ff"></path><path d="M0 475L13.7 473C27.3 471 54.7 467 82 471C109.3 475 136.7 487 163.8 483C191 479 218 459 245.2 447C272.3 435 299.7 431 327 428C354.3 425 381.7 423 409 434C436.3 445 463.7 469 491 470C518.3 471 545.7 449 573 454C600.3 459 627.7 491 654.8 496C682 501 709 479 736.2 465C763.3 451 790.7 445 818 444C845.3 443 872.7 447 886.3 449L900 451L900 227L886.3 228C872.7 229 845.3 231 818 228C790.7 225 763.3 217 736.2 230C709 243 682 277 654.8 269C627.7 261 600.3 211 573 222C545.7 233 518.3 305 491 331C463.7 357 436.3 337 409 309C381.7 281 354.3 245 327 240C299.7 235 272.3 261 245.2 257C218 253 191 219 163.8 222C136.7 225 109.3 265 82 280C54.7 295 27.3 285 13.7 280L0 275Z" fill="#0066ff"></path><path d="M0 517L13.7 520C27.3 523 54.7 529 82 535C109.3 541 136.7 547 163.8 543C191 539 218 525 245.2 523C272.3 521 299.7 531 327 534C354.3 537 381.7 533 409 533C436.3 533 463.7 537 491 542C518.3 547 545.7 553 573 557C600.3 561 627.7 563 654.8 554C682 545 709 525 736.2 516C763.3 507 790.7 509 818 515C845.3 521 872.7 531 886.3 536L900 541L900 449L886.3 447C872.7 445 845.3 441 818 442C790.7 443 763.3 449 736.2 463C709 477 682 499 654.8 494C627.7 489 600.3 457 573 452C545.7 447 518.3 469 491 468C463.7 467 436.3 443 409 432C381.7 421 354.3 423 327 426C299.7 429 272.3 433 245.2 445C218 457 191 477 163.8 481C136.7 485 109.3 473 82 469C54.7 465 27.3 469 13.7 471L0 473Z" fill="#0059dd"></path><path d="M0 601L13.7 601C27.3 601 54.7 601 82 601C109.3 601 136.7 601 163.8 601C191 601 218 601 245.2 601C272.3 601 299.7 601 327 601C354.3 601 381.7 601 409 601C436.3 601 463.7 601 491 601C518.3 601 545.7 601 573 601C600.3 601 627.7 601 654.8 601C682 601 709 601 736.2 601C763.3 601 790.7 601 818 601C845.3 601 872.7 601 886.3 601L900 601L900 539L886.3 534C872.7 529 845.3 519 818 513C790.7 507 763.3 505 736.2 514C709 523 682 543 654.8 552C627.7 561 600.3 559 573 555C545.7 551 518.3 545 491 540C463.7 535 436.3 531 409 531C381.7 531 354.3 535 327 532C299.7 529 272.3 519 245.2 521C218 523 191 537 163.8 541C136.7 545 109.3 539 82 533C54.7 527 27.3 521 13.7 518L0 515Z" fill="#004cbb"></path></svg>